<?xml version="1.0" standalone="no"?>
<!DOCTYPE svg PUBLIC "-//W3C//DTD SVG 20010904//EN"
 "http://www.w3.org/TR/2001/REC-SVG-20010904/DTD/svg10.dtd">
<svg version="1.0" xmlns="http://www.w3.org/2000/svg"
 width="256.000000pt" height="256.000000pt" viewBox="0 0 256.000000 256.000000"
 preserveAspectRatio="xMidYMid meet">
<metadata>
Created by potrace 1.10, written by Peter Selinger 2001-2011
</metadata>
<g transform="translate(0.000000,256.000000) scale(0.100000,-0.100000)"
fill="#000000" stroke="none">
<path d="M82 2530 c-18 -11 -41 -34 -52 -52 -19 -32 -20 -50 -18 -583 l3 -550
5 515 5 515 3 -699 c2 -696 2 -698 24 -737 20 -36 20 -40 5 -57 -14 -15 -17
-39 -17 -120 0 -56 -4 -102 -9 -102 -5 0 -12 8 -14 18 -3 9 -5 -6 -6 -33 -1
-62 30 -113 86 -141 35 -18 69 -19 458 -22 l420 -3 -2 -202 -2 -202 -81 0
c-61 0 -83 -4 -90 -15 -15 -23 -12 -38 9 -50 27 -14 41 -13 41 5 0 11 13 15
54 15 38 0 60 6 79 20 30 24 41 25 57 5 19 -22 461 -22 480 0 16 20 27 19 57
-5 19 -14 41 -20 79 -20 41 0 54 -4 54 -15 0 -18 14 -19 41 -5 21 12 24 27 9
50 -7 11 -29 15 -91 15 l-81 0 -2 74 c-1 58 -5 76 -18 85 -13 8 -23 8 -35 0
-14 -9 -19 -28 -21 -87 l-3 -76 -229 -1 -230 0 0 207 0 208 230 0 230 0 0 -61
c0 -67 14 -90 49 -79 25 8 35 40 29 95 l-3 39 420 3 c389 3 423 4 458 22 56
28 87 79 86 141 0 27 -3 44 -6 38 -14 -36 -23 -3 -23 84 0 76 -4 100 -17 115
-15 17 -15 21 5 57 22 39 22 41 24 737 l3 699 5 -715 5 -715 3 750 c2 733 1
751 -18 783 -11 18 -34 41 -52 52 -33 20 -104 28 -93 11 3 -5 -2 -11 -12 -13
-45 -9 -2204 3 -2198 12 11 18 -59 10 -93 -10z m2369 -78 l29 -32 0 -713 c0
-391 3 -722 6 -734 l6 -23 -1212 0 -1212 0 6 23 c3 12 6 342 6 734 l0 711 25
31 c14 16 36 32 48 34 12 2 527 4 1145 3 l1124 -1 29 -33z m35 -1604 c-3 -13
-6 -69 -6 -126 0 -101 -1 -104 -29 -133 l-29 -29 -1142 0 -1142 0 -29 29 c-28
29 -29 32 -29 133 0 57 -3 113 -6 126 l-6 22 1212 0 1212 0 -6 -22z m-921
-337 c3 -5 1 -13 -5 -16 -15 -9 -43 3 -35 15 8 13 32 13 40 1z"/>
<path d="M720 2309 c-103 -12 -242 -68 -279 -113 -17 -20 -4 -56 19 -56 11 0
48 16 82 35 222 122 509 65 662 -132 l35 -45 -19 -39 c-65 -126 -66 -336 -4
-478 l24 -53 -78 -78 c-86 -85 -152 -123 -260 -146 -91 -19 -145 -18 -238 6
-341 88 -502 488 -313 784 36 58 35 90 -2 94 -23 3 -32 -5 -64 -58 -121 -199
-116 -452 12 -647 77 -116 235 -224 371 -252 198 -41 401 19 544 160 l68 66
69 -68 c77 -75 193 -138 289 -158 199 -41 403 20 546 162 122 121 177 254 177
427 0 204 -99 385 -274 500 -146 95 -343 120 -509 63 -101 -35 -180 -86 -246
-158 l-49 -53 -74 71 c-135 130 -304 188 -489 166z m1169 -84 c186 -44 342
-200 386 -386 67 -288 -113 -574 -400 -634 -89 -19 -144 -19 -224 0 -234 55
-410 275 -411 511 0 71 34 196 72 262 66 117 199 216 331 248 72 17 170 17
246 -1z m-595 -210 c-9 -14 -20 -25 -25 -25 -5 0 -9 11 -9 25 0 20 5 25 25 25
25 0 25 -1 9 -25z m0 -591 c10 -26 7 -36 -11 -32 -10 2 -18 13 -19 26 -1 25
21 30 30 6z"/>
<path d="M1420 1901 c-12 -24 -13 -221 0 -276 21 -90 123 -137 214 -97 76 34
86 61 86 228 0 149 -6 170 -47 162 -16 -3 -18 -18 -21 -144 -2 -131 -4 -142
-25 -162 -35 -32 -86 -33 -117 -2 -18 18 -20 33 -20 153 0 137 -5 157 -42 157
-9 0 -22 -9 -28 -19z"/>
<path d="M1817 1913 c-17 -16 -3 -51 43 -115 l50 -69 -60 -85 c-63 -89 -69
-104 -45 -124 24 -20 48 -3 95 66 24 36 47 67 51 70 4 2 30 -30 59 -72 54 -78
79 -91 104 -52 8 14 -2 34 -52 107 l-63 90 51 71 c52 73 58 88 38 108 -24 24
-46 11 -89 -53 -23 -36 -44 -65 -45 -65 -1 0 -17 23 -35 51 -18 28 -39 57 -46
65 -15 15 -45 19 -56 7z m171 -146 c-5 -11 -8 -36 -4 -56 l5 -36 -37 2 c-20 1
-39 2 -41 2 -2 1 2 8 9 16 8 9 10 29 7 53 l-6 37 39 0 c35 1 38 -1 28 -18z"/>
<path d="M562 1908 c-8 -8 -12 -55 -12 -148 0 -160 11 -191 80 -227 71 -38
137 -25 195 36 l30 32 3 145 c4 152 -1 174 -39 174 -31 0 -39 -34 -39 -169 0
-123 -1 -131 -22 -145 -31 -22 -91 -20 -111 2 -14 15 -17 41 -17 146 0 70 -5
136 -10 147 -12 21 -40 25 -58 7z"/>
<path d="M972 1908 c-17 -17 -17 -369 0 -386 18 -18 46 -14 58 7 6 12 10 93
10 193 0 178 -4 198 -40 198 -9 0 -21 -5 -28 -12z"/>
<path d="M1174 736 c-3 -8 -4 -23 -2 -33 3 -16 15 -18 108 -18 l105 0 0 30 0
30 -103 3 c-83 2 -103 0 -108 -12z"/>
</g>
</svg>
