<?xml version="1.0" standalone="no"?>
<!DOCTYPE svg PUBLIC "-//W3C//DTD SVG 20010904//EN"
 "http://www.w3.org/TR/2001/REC-SVG-20010904/DTD/svg10.dtd">
<svg version="1.0" xmlns="http://www.w3.org/2000/svg"
 width="225.000000pt" height="225.000000pt" viewBox="0 0 225.000000 225.000000"
 preserveAspectRatio="xMidYMid meet">
<metadata>
Created by potrace 1.10, written by Peter Selinger 2001-2011
</metadata>
<g transform="translate(0.000000,225.000000) scale(0.100000,-0.100000)"
fill="#000000" stroke="none">
<path d="M386 2047 c-9 -7 -20 -31 -23 -52 l-5 -40 -86 3 c-109 4 -157 -9
-182 -51 -19 -31 -20 -55 -20 -639 0 -354 4 -617 9 -631 6 -14 20 -35 32 -46
22 -21 31 -21 386 -21 l363 0 -6 -27 c-16 -68 -76 -142 -139 -169 -11 -4 -72
-11 -135 -14 l-115 -5 0 -80 0 -80 570 0 570 0 3 68 c2 42 -2 74 -9 83 -8 10
-37 14 -111 14 -110 0 -145 10 -200 59 -36 31 -61 73 -73 123 l-7 28 359 0
c458 0 423 -23 423 276 0 143 3 184 13 184 17 0 117 102 117 119 0 7 -9 24
-20 38 -23 30 -12 63 21 63 49 0 59 16 59 93 0 80 -9 97 -52 97 -41 0 -50 27
-25 72 l22 37 -55 56 c-30 30 -60 55 -67 55 -10 0 -13 26 -13 105 0 171 -27
198 -197 194 l-96 -2 -2 38 c-1 23 -9 43 -20 52 -27 19 -1262 19 -1289 0z
m1262 -134 l3 -103 -621 0 -620 0 0 98 c0 54 3 102 7 105 3 4 281 6 617 5
l611 -3 3 -102z m-1288 -498 l0 -496 25 -24 24 -25 621 0 621 0 26 26 c24 24
25 29 19 95 -8 77 6 95 20 27 l9 -43 79 -3 c86 -3 96 2 96 50 0 17 8 31 20 38
20 10 20 8 20 -145 l0 -155 -910 0 -910 0 0 557 c0 504 2 558 17 575 14 15 32
18 120 18 l103 0 0 -495z m1563 477 c12 -13 16 -45 19 -145 2 -70 2 -127 0
-127 -17 0 -42 25 -42 41 0 47 -17 59 -85 59 -84 0 -94 -5 -101 -51 -13 -77
-20 -37 -20 101 l1 140 106 0 c88 0 109 -3 122 -18z m-273 -187 c0 -36 -2 -65
-5 -65 -3 0 -14 6 -25 12 -18 11 -26 7 -77 -45 l-58 -57 21 -38 c28 -50 22
-68 -29 -78 l-42 -9 -1 -75 c0 -85 7 -100 47 -100 42 0 56 -32 29 -69 -11 -16
-20 -33 -20 -37 0 -15 104 -114 120 -114 9 0 21 5 28 12 9 9 12 -3 12 -55 l0
-67 -620 0 -620 0 0 425 0 425 620 0 620 0 0 -65z m210 -70 c4 -23 15 -34 44
-48 38 -18 39 -18 68 3 l29 21 36 -34 35 -35 -22 -30 -22 -29 21 -42 c18 -34
26 -41 52 -41 30 0 30 0 27 -52 -3 -50 -5 -53 -31 -56 -20 -3 -32 -13 -48 -43
l-20 -40 22 -30 21 -31 -32 -34 -33 -34 -33 21 c-32 19 -34 19 -66 3 -39 -20
-48 -31 -48 -61 0 -21 -5 -23 -50 -23 -48 0 -51 1 -57 30 -4 23 -16 36 -45 51
l-39 20 -30 -22 -31 -21 -33 32 -34 33 20 29 c19 26 20 33 8 61 -19 48 -29 57
-60 57 -28 0 -29 2 -29 49 0 50 9 61 49 61 12 0 24 15 35 42 15 41 15 44 -3
68 l-19 26 33 36 33 35 30 -19 c29 -18 32 -18 69 -1 22 11 39 26 41 38 7 43
11 46 59 43 44 -3 48 -5 53 -33z m80 -957 c0 -72 57 -68 -910 -68 -967 0 -910
-4 -910 68 l0 37 910 0 910 0 0 -37z m-770 -135 c1 -43 34 -107 78 -150 l39
-38 -253 0 c-140 0 -254 1 -254 3 0 1 16 17 37 35 38 34 83 116 83 155 0 22 2
22 135 22 l135 0 0 -27z m394 -270 l-1 -38 -532 -3 -531 -2 0 40 0 40 533 0
532 0 -1 -37z"/>
<path d="M504 1925 c-4 -9 -2 -21 4 -27 15 -15 44 -1 40 19 -4 23 -36 29 -44
8z"/>
<path d="M612 1927 c-15 -17 1 -42 23 -33 18 6 17 37 -1 43 -6 2 -16 -2 -22
-10z"/>
<path d="M717 1934 c-16 -16 -7 -44 14 -44 15 0 20 5 17 22 -3 22 -19 33 -31
22z"/>
<path d="M913 1924 c-3 -8 -1 -20 4 -25 5 -5 135 -8 324 -7 306 3 314 3 314
23 0 20 -8 20 -318 23 -282 2 -318 1 -324 -14z"/>
<path d="M1113 1658 c-17 -23 -205 -610 -199 -624 18 -46 37 -3 136 297 56
171 99 317 96 325 -7 17 -21 18 -33 2z"/>
<path d="M770 1431 l-95 -89 60 -54 c118 -107 135 -120 150 -114 28 10 15 31
-65 100 l-80 70 53 46 c28 26 65 58 81 72 29 25 32 58 4 58 -7 0 -56 -40 -108
-89z"/>
<path d="M1163 1503 c-4 -11 5 -26 28 -46 19 -17 55 -49 81 -72 l47 -42 -79
-69 c-80 -69 -93 -90 -65 -100 10 -4 47 22 103 71 48 43 90 84 94 91 8 13
-169 184 -191 184 -6 0 -14 -7 -18 -17z"/>
<path d="M1740 1478 c-56 -29 -96 -99 -86 -152 27 -144 192 -181 280 -62 29
38 29 124 0 163 -22 31 -97 73 -129 73 -11 0 -41 -10 -65 -22z m119 -42 c58
-30 69 -119 22 -167 -48 -47 -137 -36 -167 22 -24 48 -18 87 20 125 38 38 77
44 125 20z"/>
</g>
</svg>
