<?xml version="1.0" standalone="no"?>
<!DOCTYPE svg PUBLIC "-//W3C//DTD SVG 20010904//EN"
 "http://www.w3.org/TR/2001/REC-SVG-20010904/DTD/svg10.dtd">
<svg version="1.0" xmlns="http://www.w3.org/2000/svg"
 width="256.000000pt" height="256.000000pt" viewBox="0 0 256.000000 256.000000"
 preserveAspectRatio="xMidYMid meet">
<metadata>
Created by potrace 1.10, written by Peter Selinger 2001-2011
</metadata>
<g transform="translate(0.000000,256.000000) scale(0.100000,-0.100000)"
fill="#000000" stroke="none">
<path d="M778 2428 c-47 -12 -113 -69 -138 -119 -20 -38 -20 -62 -20 -1029 0
-967 0 -991 20 -1029 26 -53 92 -107 145 -120 29 -7 200 -11 498 -11 512 0
526 2 589 67 74 78 68 -9 68 1093 0 1102 6 1015 -68 1093 -64 66 -76 67 -596
66 -264 -1 -477 -5 -498 -11z m1039 -70 c48 -32 73 -81 80 -159 l6 -59 -623 0
-623 0 6 67 c8 82 38 131 99 162 43 21 48 21 529 19 l485 -3 41 -27z m83
-1078 l0 -810 -620 0 -620 0 0 810 0 810 620 0 620 0 0 -810z m-3 -919 c-7
-78 -32 -127 -80 -159 l-41 -27 -484 -3 c-478 -3 -485 -2 -529 19 -62 30 -92
79 -100 162 l-6 67 623 0 623 0 -6 -59z"/>
<path d="M1162 2277 c-25 -30 2 -38 119 -35 106 3 114 4 114 23 0 19 -8 20
-111 23 -82 2 -114 -1 -122 -11z"/>
<path d="M719 2028 c0 -16 0 -1490 1 -1500 0 -5 252 -8 560 -8 308 0 560 3
560 8 1 12 1 1486 1 1500 -1 18 -1121 18 -1122 0z m1081 -305 l0 -272 -72 -3
c-65 -3 -73 -5 -73 -23 0 -18 7 -20 73 -20 72 0 72 0 72 -27 l0 -28 -75 0
c-68 0 -75 -2 -75 -20 0 -22 0 -22 88 -20 l62 1 0 -31 0 -31 -62 1 c-88 2 -88
2 -88 -20 0 -18 7 -20 75 -20 l75 0 0 -322 0 -323 -520 0 -520 0 0 323 0 322
75 0 c68 0 75 2 75 20 0 22 0 22 -87 20 l-63 -1 0 31 0 31 63 -1 c87 -2 87 -2
87 20 0 18 -7 20 -75 20 l-75 0 0 28 c0 27 0 27 72 27 66 0 73 2 73 20 0 18
-8 20 -72 23 l-73 3 0 272 0 272 520 0 520 0 0 -272z"/>
<path d="M1198 1957 c-124 -35 -208 -149 -208 -283 0 -127 70 -230 188 -274
97 -37 213 -17 294 50 20 17 50 58 67 92 74 148 15 326 -133 398 -55 26 -148
34 -208 17z m206 -71 c57 -33 104 -100 118 -169 30 -145 -89 -287 -242 -287
-153 0 -272 142 -242 288 19 92 74 156 159 188 57 22 152 12 207 -20z"/>
<path d="M1313 1838 c-5 -7 -31 -82 -58 -165 -39 -120 -47 -155 -37 -165 10
-10 15 -9 26 2 20 22 110 305 103 324 -8 19 -21 21 -34 4z"/>
<path d="M1128 1715 c-26 -19 -45 -40 -43 -47 6 -15 86 -68 102 -68 26 0 20
31 -10 55 -18 13 -27 25 -21 25 5 0 20 9 33 21 17 16 20 24 10 35 -16 19 -17
18 -71 -21z"/>
<path d="M1361 1736 c-10 -11 -7 -19 10 -35 13 -12 28 -21 33 -21 6 0 -3 -12
-21 -25 -30 -24 -36 -55 -10 -55 15 0 107 61 107 71 0 9 -89 78 -101 79 -4 0
-12 -6 -18 -14z"/>
<path d="M1227 1313 c-3 -4 -8 -26 -11 -49 -6 -33 -13 -42 -38 -52 -27 -10
-35 -8 -66 13 -46 31 -50 31 -84 -2 -34 -33 -35 -41 -4 -86 21 -31 23 -40 13
-66 -9 -25 -18 -31 -56 -38 l-46 -8 0 -55 0 -55 46 -8 c38 -7 47 -13 57 -39
10 -27 8 -35 -13 -66 -31 -46 -31 -52 3 -85 34 -33 40 -33 85 -3 31 21 40 23
66 13 25 -9 31 -18 38 -56 l8 -46 55 0 55 0 8 46 c7 38 13 47 38 56 26 10 35
8 66 -13 45 -30 51 -30 85 3 34 33 34 39 3 85 -21 31 -23 39 -13 66 10 26 19
32 57 39 l46 8 0 55 0 55 -46 8 c-38 7 -47 13 -57 39 -10 27 -8 35 13 66 31
46 31 50 -2 84 -33 34 -39 34 -85 3 -31 -21 -39 -23 -66 -13 -26 10 -32 19
-39 57 l-8 46 -52 3 c-28 2 -53 -1 -56 -5z m76 -82 c7 -33 14 -44 35 -52 15
-5 37 -14 48 -20 16 -8 29 -7 52 5 17 9 34 21 37 26 5 8 11 7 20 0 12 -10 10
-18 -12 -51 -22 -33 -24 -43 -15 -62 6 -12 16 -34 21 -49 8 -21 19 -28 53 -35
27 -5 43 -14 43 -23 0 -9 -16 -18 -43 -23 -34 -7 -45 -14 -53 -35 -5 -15 -15
-37 -21 -49 -9 -19 -7 -29 15 -61 35 -54 19 -70 -35 -35 -32 22 -42 24 -61 15
-12 -6 -34 -16 -49 -21 -21 -8 -28 -19 -35 -53 -11 -57 -35 -57 -46 0 -7 34
-14 45 -35 53 -15 5 -37 15 -49 21 -19 9 -29 7 -61 -15 -54 -35 -70 -19 -35
35 22 32 24 42 15 61 -6 12 -16 34 -21 49 -8 21 -19 28 -53 35 -57 11 -57 35
0 46 34 7 45 14 53 35 5 15 15 37 21 49 9 19 7 29 -15 61 -34 52 -19 72 28 36
35 -27 47 -29 73 -14 9 5 29 14 44 20 21 7 29 18 34 47 4 21 9 42 11 46 11 18
28 -2 36 -42z"/>
<path d="M1190 1118 c-108 -74 -112 -214 -9 -291 54 -40 143 -40 198 1 49 36
71 80 71 142 0 66 -24 110 -79 147 -47 32 -135 32 -181 1z m148 -38 c37 -23
72 -75 72 -108 0 -30 -22 -71 -55 -102 -21 -20 -37 -25 -76 -25 -43 0 -53 4
-85 36 -45 46 -55 99 -25 147 25 38 76 72 111 72 14 0 40 -9 58 -20z"/>
<path d="M1239 1045 c-14 -8 -32 -28 -39 -45 -17 -42 5 -91 49 -110 67 -28
139 43 111 110 -12 30 -55 60 -82 60 -7 -1 -25 -7 -39 -15z m71 -50 c26 -32
-13 -81 -47 -59 -35 22 -23 74 17 74 10 0 23 -7 30 -15z"/>
<path d="M1215 366 c-32 -32 -40 -69 -25 -107 17 -39 46 -59 90 -59 44 0 73
20 90 59 15 38 7 75 -25 107 -33 33 -97 33 -130 0z m93 -32 c30 -21 29 -59 -3
-80 -23 -15 -27 -15 -50 0 -32 21 -33 59 -3 80 12 9 25 16 28 16 3 0 16 -7 28
-16z"/>
<path d="M2027 2354 c-25 -25 8 -70 43 -59 32 10 24 59 -10 63 -14 2 -29 0
-33 -4z"/>
<path d="M351 2291 c-13 -24 8 -55 34 -50 28 6 42 34 26 53 -18 22 -48 20 -60
-3z"/>
<path d="M2151 2222 c-48 -24 -73 -62 -78 -119 -8 -83 57 -155 140 -155 87 0
147 62 147 150 0 72 -71 142 -145 142 -16 0 -45 -8 -64 -18z m122 -52 c58 -46
51 -130 -14 -164 -99 -53 -190 75 -110 155 36 35 86 39 124 9z"/>
<path d="M275 1650 c-13 -41 43 -70 64 -33 13 25 -5 53 -34 53 -15 0 -26 -7
-30 -20z"/>
<path d="M2200 1585 c-6 -8 -9 -23 -5 -35 8 -25 51 -27 64 -2 20 38 -31 71
-59 37z"/>
<path d="M456 1244 c-19 -18 -19 -20 -6 -45 6 -10 19 -19 30 -19 16 0 40 26
40 44 0 8 -31 36 -40 36 -5 0 -16 -7 -24 -16z"/>
<path d="M2039 1095 c-29 -16 -52 -66 -42 -93 3 -9 15 -27 26 -39 40 -45 118
-23 140 39 10 28 -13 78 -44 93 -34 18 -47 18 -80 0z m71 -50 c23 -28 -9 -72
-45 -59 -36 14 -24 74 15 74 10 0 23 -7 30 -15z"/>
<path d="M290 768 c-66 -34 -93 -79 -88 -148 5 -64 26 -99 79 -129 158 -90
316 121 186 247 -31 30 -81 52 -117 52 -9 0 -36 -10 -60 -22z m120 -43 c32
-17 60 -61 60 -95 0 -29 -26 -76 -52 -94 -32 -23 -100 -20 -132 5 -47 37 -51
115 -9 162 35 38 85 47 133 22z"/>
<path d="M2271 741 c-13 -24 8 -55 34 -50 28 6 42 34 26 53 -18 22 -48 20 -60
-3z"/>
<path d="M2050 401 c-18 -34 10 -68 44 -55 21 8 28 32 16 55 -14 25 -46 25
-60 0z"/>
<path d="M401 251 c-13 -24 8 -55 34 -50 28 6 42 34 26 53 -18 22 -48 20 -60
-3z"/>
</g>
</svg>
