<?xml version="1.0" encoding="iso-8859-1"?>
<!-- Uploaded to: SVG Repo, www.svgrepo.com, Generator: SVG Repo Mixer Tools -->
<svg height="800px" width="800px" version="1.1" id="Layer_1" xmlns="http://www.w3.org/2000/svg" xmlns:xlink="http://www.w3.org/1999/xlink" 
	 viewBox="0 0 511.979 511.979" xml:space="preserve">
<path style="fill:#DA4453;" d="M319.975,297.988H192.003c-5.891,0-10.672,4.781-10.672,10.672v192.647
	c0,3.938,2.156,7.547,5.625,9.406c3.469,1.859,7.688,1.656,10.953-0.531l58.076-38.718l58.084,38.718
	c1.781,1.188,3.844,1.797,5.906,1.797c1.734,0,3.469-0.422,5.046-1.266c3.453-1.859,5.624-5.469,5.624-9.406V308.66
	C330.645,302.769,325.865,297.988,319.975,297.988z"/>
<g>
	<path style="fill:#ED5564;" d="M213.33,297.988h-21.327c-5.891,0-10.672,4.781-10.672,10.672v192.647
		c0,3.938,2.156,7.547,5.625,9.406c1.578,0.844,3.312,1.266,5.047,1.266c2.062,0,4.125-0.609,5.906-1.797l15.421-10.281
		L213.33,297.988L213.33,297.988z"/>
	<path style="fill:#ED5564;" d="M298.648,297.988h21.327c5.89,0,10.67,4.781,10.67,10.672v192.647c0,3.938-2.171,7.547-5.624,9.406
		c-1.577,0.844-3.312,1.266-5.046,1.266c-2.062,0-4.125-0.609-5.906-1.797l-15.421-10.281L298.648,297.988L298.648,297.988z"/>
</g>
<path style="fill:#FFCE54;" d="M435.174,174.923l-25.983-34.655l5.172-42.999c0.578-4.711-2.031-9.226-6.391-11.085l-39.843-17.015
	L351.13,29.335c-1.875-4.359-6.391-6.968-11.094-6.398l-42.997,5.179L262.391,2.133c-3.797-2.844-9-2.844-12.797,0l-34.655,25.983
	l-42.999-5.179c-4.703-0.562-9.218,2.039-11.078,6.398l-17.013,39.834l-39.842,17.015c-4.359,1.859-6.969,6.375-6.391,11.085
	l5.172,42.999l-25.983,34.655c-2.844,3.789-2.844,9.007,0,12.796l25.983,34.655l-5.172,42.998
	c-0.578,4.703,2.031,9.211,6.391,11.086l39.842,17.015l17.015,39.826c1.859,4.359,6.375,6.969,11.078,6.391l42.999-5.172
	l34.655,25.983c1.891,1.422,4.14,2.141,6.39,2.141c2.266,0,4.516-0.719,6.407-2.141l34.647-25.983l42.997,5.188
	c4.703,0.562,9.219-2.047,11.094-6.406l16.999-39.826l39.843-17.015c4.359-1.859,6.969-6.383,6.391-11.086l-5.172-42.998
	l25.983-34.655C438.017,183.93,438.017,178.711,435.174,174.923z"/>
<g>
	<path style="fill:#F6BB42;" d="M255.985,106.66c-5.875,0-10.656-4.773-10.656-10.672V74.661c0-5.891,4.781-10.664,10.656-10.664
		c5.907,0,10.672,4.773,10.672,10.664v21.327C266.657,101.886,261.891,106.66,255.985,106.66z"/>
	<path style="fill:#F6BB42;" d="M255.985,298.644c-5.875,0-10.656-4.781-10.656-10.672v-21.327c0-5.89,4.781-10.664,10.656-10.664
		c5.907,0,10.672,4.774,10.672,10.664v21.327C266.657,293.863,261.891,298.644,255.985,298.644z"/>
	<path style="fill:#F6BB42;" d="M213.33,118.089c-3.672,0-7.265-1.906-9.234-5.335l-10.671-18.468
		c-2.938-5.102-1.203-11.625,3.906-14.569c5.094-2.945,11.625-1.203,14.562,3.898l10.672,18.476
		c2.952,5.102,1.202,11.625-3.906,14.57C216.987,117.628,215.143,118.089,213.33,118.089z"/>
	<path style="fill:#F6BB42;" d="M309.32,284.347c-3.688,0-7.266-1.905-9.234-5.327l-10.672-18.468
		c-2.953-5.102-1.203-11.625,3.906-14.57c5.094-2.945,11.625-1.203,14.562,3.898l10.671,18.476
		c2.938,5.102,1.203,11.617-3.906,14.57C312.975,283.894,311.132,284.347,309.32,284.347z"/>
	<path style="fill:#F6BB42;" d="M182.081,149.322c-1.812,0-3.64-0.461-5.312-1.43l-18.484-10.663
		c-5.094-2.945-6.844-9.469-3.906-14.57c2.953-5.101,9.469-6.851,14.578-3.906l18.468,10.664c5.109,2.945,6.859,9.469,3.906,14.57
		C189.363,147.408,185.769,149.322,182.081,149.322z"/>
	<path style="fill:#F6BB42;" d="M348.348,245.318c-1.812,0-3.641-0.461-5.328-1.43l-18.468-10.664
		c-5.108-2.945-6.858-9.468-3.905-14.569c2.938-5.109,9.468-6.852,14.561-3.906l18.484,10.664c5.094,2.945,6.844,9.468,3.906,14.569
		C355.614,243.404,352.036,245.318,348.348,245.318z"/>
	<path style="fill:#F6BB42;" d="M170.66,191.985h-21.327c-5.891,0-10.672-4.773-10.672-10.664s4.781-10.664,10.672-10.664h21.327
		c5.891,0,10.671,4.773,10.671,10.664S176.551,191.985,170.66,191.985z"/>
	<path style="fill:#F6BB42;" d="M362.645,191.985h-21.328c-5.891,0-10.672-4.773-10.672-10.664s4.781-10.664,10.672-10.664h21.328
		c5.89,0,10.671,4.773,10.671,10.664S368.535,191.985,362.645,191.985z"/>
	<path style="fill:#F6BB42;" d="M163.629,245.318c-3.688,0-7.266-1.914-9.25-5.336c-2.938-5.102-1.188-11.625,3.906-14.569
		l18.484-10.664c5.093-2.945,11.625-1.203,14.562,3.906c2.953,5.101,1.203,11.624-3.906,14.569l-18.468,10.664
		C167.269,244.857,165.442,245.318,163.629,245.318z"/>
	<path style="fill:#F6BB42;" d="M329.896,149.322c-3.688,0-7.28-1.914-9.249-5.335c-2.953-5.101-1.203-11.625,3.905-14.57
		l18.468-10.664c5.109-2.945,11.625-1.195,14.578,3.906c2.938,5.102,1.188,11.625-3.906,14.57l-18.484,10.663
		C333.536,148.861,331.692,149.322,329.896,149.322z"/>
	<path style="fill:#F6BB42;" d="M202.659,284.347c-1.812,0-3.656-0.453-5.328-1.421c-5.109-2.953-6.843-9.469-3.906-14.57
		l10.671-18.476c2.938-5.102,9.468-6.844,14.562-3.898c5.108,2.945,6.858,9.468,3.906,14.57l-10.672,18.468
		C209.924,282.442,206.331,284.347,202.659,284.347z"/>
	<path style="fill:#F6BB42;" d="M298.633,118.089c-1.797,0-3.641-0.46-5.312-1.429c-5.109-2.945-6.859-9.468-3.906-14.57
		l10.656-18.476c2.953-5.101,9.469-6.843,14.577-3.898c5.109,2.945,6.844,9.468,3.906,14.569l-10.671,18.468
		C305.914,116.175,302.32,118.089,298.633,118.089z"/>
</g>
<path style="fill:#ED5564;" d="M255.985,85.324c-52.919,0-95.98,43.061-95.98,95.996c0,52.927,43.061,95.997,95.98,95.997
	c52.929,0,95.989-43.069,95.989-95.997C351.973,128.386,308.914,85.324,255.985,85.324z"/>
<path style="opacity:0.2;fill:#FFFFFF;enable-background:new    ;" d="M255.985,85.324c-1.781,0-3.562,0.055-5.328,0.148
	c50.46,2.781,90.66,44.709,90.66,95.848s-40.2,93.059-90.66,95.84c1.765,0.094,3.546,0.156,5.328,0.156
	c52.929,0,95.989-43.069,95.989-95.997C351.973,128.386,308.914,85.324,255.985,85.324z"/>
<g>
	<path style="fill:#E6E9ED;" d="M255.985,234.646c-17.64,0-31.983-14.351-31.983-31.99c0-17.648,14.343-31.999,31.983-31.999
		c17.648,0,31.992,14.351,31.992,31.999C287.976,220.296,273.633,234.646,255.985,234.646z"/>
	<path style="fill:#E6E9ED;" d="M266.657,149.322c0,5.89-4.766,10.664-10.672,10.664c-5.875,0-10.656-4.773-10.656-10.664
		s4.781-10.663,10.656-10.663C261.891,138.659,266.657,143.432,266.657,149.322z"/>
	<path style="fill:#E6E9ED;" d="M233.361,154.275c4.172,4.172,4.172,10.922,0,15.085c-4.172,4.172-10.921,4.172-15.077,0
		c-4.172-4.164-4.172-10.914,0-15.085C222.44,150.111,229.189,150.111,233.361,154.275z"/>
	<path style="fill:#E6E9ED;" d="M278.617,154.275c4.172-4.164,10.922-4.164,15.078,0c4.172,4.172,4.172,10.922,0,15.085
		c-4.156,4.172-10.906,4.172-15.078,0C274.445,165.197,274.445,158.447,278.617,154.275z"/>
</g>
</svg>