<svg width="392" height="340" viewBox="0 0 392 340" fill="none" xmlns="http://www.w3.org/2000/svg">
<path opacity="0.5" d="M277.445 0C282.552 9.55524e-05 287.568 1.34187 291.989 3.89031C296.411 6.43874 300.081 10.1039 302.631 14.517L384.115 155.517C386.66 159.922 388 164.916 388 170.001C388 175.085 386.66 180.079 384.115 184.484L302.631 325.484C300.081 329.897 296.41 333.562 291.989 336.11C287.568 338.658 282.551 340 277.445 340H114.555C109.448 340 104.432 338.658 100.011 336.11C95.5893 333.561 91.9188 329.896 89.3686 325.483L7.88534 184.483C5.3399 180.078 4 175.084 4 169.999C4 164.915 5.3399 159.921 7.88534 155.516L89.3686 14.516C91.9189 10.1031 95.5895 6.43813 100.011 3.88987C104.432 1.34162 109.448 -5.70474e-06 114.555 0L277.445 0Z" fill="#0010F1"/>
<path opacity="0.4" d="M269.204 14C274.303 14.0004 279.312 15.3382 283.728 17.8794C288.144 20.4206 291.813 24.0757 294.366 28.478L368.021 155.478C370.581 159.892 371.929 164.901 371.929 170C371.929 175.099 370.581 180.108 368.021 184.522L294.366 311.522C291.813 315.924 288.144 319.579 283.728 322.121C279.312 324.662 274.303 326 269.204 326H121.792C116.694 326 111.685 324.662 107.268 322.121C102.852 319.579 99.1831 315.924 96.63 311.522L22.9721 184.522C20.4123 180.108 19.0645 175.099 19.0645 170C19.0645 164.901 20.4123 159.892 22.9721 155.478L96.627 28.478C99.1804 24.0753 102.85 20.4199 107.267 17.8787C111.684 15.3375 116.693 13.9998 121.792 14L269.204 14Z" fill="#0010F1"/>
<path d="M260.344 28C265.466 28 270.496 29.3496 274.927 31.9122C279.357 34.4747 283.03 38.1593 285.575 42.593L350.134 155.093C352.651 159.479 353.975 164.446 353.975 169.5C353.975 174.554 352.651 179.521 350.134 183.907L285.575 296.407C283.03 300.841 279.357 304.525 274.927 307.088C270.496 309.65 265.466 311 260.344 311H131.656C126.535 311 121.505 309.65 117.074 307.088C112.644 304.525 108.97 300.841 106.426 296.407L41.8667 183.907C39.3496 179.521 38.0254 174.554 38.0254 169.5C38.0254 164.446 39.3496 159.479 41.8667 155.093L106.426 42.593C108.97 38.1593 112.644 34.4747 117.074 31.9122C121.505 29.3496 126.535 28 131.656 28L260.344 28Z" fill="#0010F1"/>
<g clip-path="url(#clip0_1379_989)">
<mask id="mask0_1379_989" style="mask-type:luminance" maskUnits="userSpaceOnUse" x="135" y="95" width="122" height="150">
<path d="M256.154 95H135V245H256.154V95Z" fill="white"/>
</mask>
<g mask="url(#mask0_1379_989)">
<path d="M158.091 193.092L135 169.994L209.977 95H256.154M256.154 164.204H209.977L192.68 181.507L215.771 204.605" fill="white"/>
<path d="M192.68 227.698L209.977 245H256.154L215.771 204.605" fill="#BABABA"/>
<path d="M169.643 204.617L192.698 181.549L215.753 204.611L192.698 227.679L169.643 204.617Z" fill="white"/>
</g>
</g>
<defs>
<clipPath id="clip0_1379_989">
<rect width="121.154" height="150" fill="white" transform="translate(135 95)"/>
</clipPath>
</defs>
</svg>
